<?xml version="1.0" encoding="UTF-8" standalone="no"?>
<svg
   xmlns:dc="http://purl.org/dc/elements/1.1/"
   xmlns:cc="http://creativecommons.org/ns#"
   xmlns:rdf="http://www.w3.org/1999/02/22-rdf-syntax-ns#"
   xmlns:svg="http://www.w3.org/2000/svg"
   xmlns="http://www.w3.org/2000/svg"
   xmlns:xlink="http://www.w3.org/1999/xlink"
   xmlns:sodipodi="http://sodipodi.sourceforge.net/DTD/sodipodi-0.dtd"
   xmlns:inkscape="http://www.inkscape.org/namespaces/inkscape"
   width="375"
   height="423"
   version="1.1"
   id="svg25"
   sodipodi:docname="bg-intro-mobile-darker.svg"
   inkscape:version="0.92.5 (2060ec1f9f, 2020-04-08)">
  <metadata
     id="metadata29">
    <rdf:RDF>
      <cc:Work
         rdf:about="">
        <dc:format>image/svg+xml</dc:format>
        <dc:type
           rdf:resource="http://purl.org/dc/dcmitype/StillImage" />
        <dc:title></dc:title>
      </cc:Work>
    </rdf:RDF>
  </metadata>
  <sodipodi:namedview
     pagecolor="#ffffff"
     bordercolor="#666666"
     borderopacity="1"
     objecttolerance="10"
     gridtolerance="10"
     guidetolerance="10"
     inkscape:pageopacity="0"
     inkscape:pageshadow="2"
     inkscape:window-width="1366"
     inkscape:window-height="704"
     id="namedview27"
     showgrid="false"
     inkscape:zoom="0.55791962"
     inkscape:cx="187.5"
     inkscape:cy="211.5"
     inkscape:window-x="0"
     inkscape:window-y="27"
     inkscape:window-maximized="1"
     inkscape:current-layer="svg25" />
  <defs
     id="defs15">
    <linearGradient
       id="c"
       x1="0%"
       x2="99.58%"
       y1="36.139%"
       y2="63.745%">
      <stop
         offset="0%"
         stop-color="#33D35E"
         id="stop2" />
      <stop
         offset="100%"
         stop-color="#2AB6D9"
         id="stop4" />
    </linearGradient>
    <filter
       id="a"
       width="116.9%"
       height="158.7%"
       x="-10.8%"
       y="-28.8%"
       filterUnits="objectBoundingBox">
      <feOffset
         dy="2"
         in="SourceAlpha"
         result="shadowOffsetOuter1"
         id="feOffset7" />
      <feGaussianBlur
         in="shadowOffsetOuter1"
         result="shadowBlurOuter1"
         stdDeviation="38.5"
         id="feGaussianBlur9" />
      <feColorMatrix
         in="shadowBlurOuter1"
         values="0 0 0 0 0 0 0 0 0 0 0 0 0 0 0 0 0 0 0.0240111451 0"
         id="feColorMatrix11" />
    </filter>
    <path
       id="b"
       d="M42.46 162.61l70.744 70.76a100 100 0 0070.719 29.298h11.03a100 100 0 0170.719 29.298l75.718 75.736A100 100 0 00412.109 397H633.78c27.507 0 49.805-22.299 49.805-49.805a49.805 49.805 0 00-14.583-35.213l-52.835-52.848c-7.359-7.36-7.357-19.294.003-26.653a18.846 18.846 0 0113.325-5.518c10.408 0 18.846-8.438 18.846-18.846 0-4.997-1.985-9.79-5.518-13.325L534.747 86.691a100 100 0 00-70.72-29.298H352.013a97.948 97.948 0 01-69.267-28.696A97.948 97.948 0 00213.477 0H84.94c-19.435 0-35.19 15.755-35.19 35.19a35.19 35.19 0 0010.304 24.88L77.65 77.669c9.715 9.717 9.713 25.47-.004 35.185a24.88 24.88 0 01-17.59 7.285c-13.742 0-24.88 11.14-24.88 24.88a24.88 24.88 0 007.284 17.59z" />
  </defs>
  <g
     fill="none"
     fill-rule="evenodd"
     transform="translate(-94 -52)"
     id="g23">
    <use
       fill="#000"
       filter="url(#a)"
       xlink:href="#b"
       id="use17" />
    <use
       fill="#2D314D"
       xlink:href="#b"
       id="use19" />
    <path
       fill="url(#c)"
       d="M256.46 163.61l70.744 70.76a100 100 0 0070.719 29.298h11.03a100 100 0 0170.719 29.298l75.718 75.736A100 100 0 00626.109 398H847.78c27.507 0 49.805-22.299 49.805-49.805a49.805 49.805 0 00-14.583-35.213l-52.835-52.848c-7.359-7.36-7.357-19.294.003-26.653a18.846 18.846 0 0113.325-5.518c10.408 0 18.846-8.438 18.846-18.846 0-4.997-1.985-9.79-5.518-13.325L748.747 87.691a100 100 0 00-70.72-29.298H566.013a97.948 97.948 0 01-69.267-28.696A97.948 97.948 0 00427.477 1H298.94c-19.435 0-35.19 15.755-35.19 35.19a35.19 35.19 0 0010.304 24.88l17.595 17.599c9.715 9.717 9.713 25.47-.004 35.185a24.88 24.88 0 01-17.59 7.285c-13.742 0-24.88 11.14-24.88 24.88a24.88 24.88 0 007.284 17.59z"
       id="path21" />
  </g>
  <path
     style="fill:#008080;stroke-width:1.79237282"
     d="m 508.33475,342.39468 c -24.50032,-6.51449 -29.71153,-10.47434 -83.34534,-63.33176 -27.60255,-27.20297 -50.34399,-50.26652 -50.53654,-51.25233 -0.19255,-0.9858 22.03296,-50.99301 49.39002,-111.12712 l 49.74012,-109.3347412 62.63328,0.00536 c 55.64095,0.00475 63.82342,0.3720212 73.29382,3.2897462 22.86446,7.044286 30.74493,12.587756 61.25805,43.091663 l 28.90162,28.892893 -59.48902,130.843219 -59.48901,130.84322 -31.24948,0.35053 c -22.69176,0.25454 -33.94911,-0.36729 -41.10752,-2.27068 z"
     id="path31"
     inkscape:connector-curvature="0" />
  <path
     style="fill:#008080;stroke-width:1.79237282"
     d="m 359.5678,222.20701 c -14.24516,-7.48631 -31.80021,-11.34302 -51.97882,-11.41933 -19.4466,-0.0735 -34.86401,-3.74019 -50.89781,-12.10476 -9.86699,-5.14744 -17.63246,-11.58636 -34.51487,-28.6188 L 200.39286,148.0871 229.89487,83.095036 c 16.22611,-35.745638 36.51404,-80.6131337 45.08429,-99.705545 l 15.58228,-34.713475 30.47034,0.926051 c 24.03233,0.730387 32.56174,1.671544 40.36867,4.454383 16.87049,6.013607 27.23544,12.162732 41.06779,24.363942 20.44967,18.0381731 42.78916,28.0321504 62.66017,28.0321504 4.0474,0 7.35888,0.3321231 7.35888,0.7380507 0,0.4059259 -18.15452,40.7757479 -40.34336,89.7107149 -22.18884,48.934972 -44.5127,98.610042 -49.60858,110.389072 -5.09588,11.77903 -9.72692,21.33157 -10.29119,21.22786 -0.56427,-0.10369 -6.26863,-2.94374 -12.67636,-6.31123 z"
     id="path33"
     inkscape:connector-curvature="0" />
  <path
     style="fill:#008080;stroke-width:1.79237282"
     d="m 179.13685,127.89061 c -22.12282,-22.50699 -25.40993,-28.515828 -22.17384,-40.533777 2.68546,-9.973019 9.99161,-15.534044 23.54555,-17.921523 15.54676,-2.738509 24.91517,-12.278598 24.91517,-25.371762 0,-7.835767 -2.37454,-11.664739 -16.09945,-25.960582 -6.62505,-6.900635 -13.43292,-15.2393098 -15.12861,-18.53038958 -3.83996,-7.45277422 -4.02632,-23.24158442 -0.35805,-30.33523142 3.89073,-7.523841 14.23088,-16.047774 22.12716,-18.24059 3.86142,-1.072326 25.41822,-1.884448 50.17174,-1.890149 l 43.40134,-0.01 -3.27189,7.617585 c -8.69436,20.242113 -85.12269,188.818309 -86.13969,189.996329 -0.64058,0.74199 -10.08582,-7.72697 -20.98943,-18.81991 z"
     id="path35"
     inkscape:connector-curvature="0" />
  <path
     style="fill:#008080;stroke-width:1.79237282"
     d="m 502.59503,339.95793 c -16.67817,-5.33267 -24.84075,-11.28336 -56.47414,-41.17093 -47.51761,-44.89514 -71.01245,-69.47008 -69.95104,-73.16681 0.50324,-1.75269 1.43875,-4.79985 2.07894,-6.77146 0.64016,-1.97161 -0.22122,-0.9634 -1.91422,2.24046 -1.69299,3.20387 -3.7154,5.82522 -4.49423,5.82522 -0.77886,0 -6.07685,-2.11081 -11.77335,-4.69068 -17.29204,-7.83136 -25.49758,-9.72316 -49.81108,-11.48395 -41.47608,-3.00373 -54.6486,-9.07973 -86.15524,-39.74026 -12.24393,-11.91512 -22.26169,-22.38982 -22.26169,-23.27711 0,-0.8873 10.48981,-24.69703 23.31069,-52.910534 12.82088,-28.213503 23.03939,-51.568579 22.7078,-51.900168 -0.33159,-0.331589 -10.94381,22.180668 -23.58271,50.027235 -12.63891,27.846567 -23.54267,51.275057 -24.2306,52.063307 -1.45886,1.67162 -30.14206,-26.32191 -37.79442,-36.88569 -3.90357,-5.38872 -5.22008,-9.217653 -5.22008,-15.182094 0,-11.22792 7.34375,-18.269166 24.4537,-23.446408 16.3589,-4.949985 23.94037,-12.601978 23.94037,-24.163052 0,-8.634466 -1.35879,-10.903653 -18.29615,-30.554726 -16.92958,-19.6420391 -20.01332,-34.222521 -10.25119,-48.469419 7.44924,-10.871459 14.81376,-14.384793 32.89213,-15.691593 24.83781,-1.795408 78.10436,-1.726355 78.10436,0.101252 0,0.887651 -3.24332,8.667426 -7.20737,17.28839 -3.96406,8.620964 -6.89622,15.985638 -6.51591,16.365944 0.3803,0.380303 4.22855,-7.452276 8.55165,-17.405737 l 7.86019,-18.097199 28.67797,1.233371 c 15.77288,0.678353 32.91802,2.335495 38.10029,3.682537 14.18328,3.686688 28.64412,11.66297 44.45948,24.522871 23.19327,18.8590623 43.38036,28.1518454 61.15537,28.1518454 4.25721,0 7.74037,0.821932 7.74037,1.8265176 0,1.0045837 -8.06262,19.693129 -17.91694,41.530099 -9.85431,21.83697 -17.62761,39.9929 -17.27401,40.346512 0.35362,0.353612 9.02117,-17.907927 19.26121,-40.581195 l 18.61829,-41.2241244 61.90838,-0.052714 c 87.47522,-0.074491 87.9683,0.093114 134.12689,45.5927474 l 29.52018,29.098756 -59.00654,130.138499 -59.00653,130.13849 -34.05509,-0.0201 c -27.98295,-0.0161 -35.87746,-0.60283 -44.27573,-3.28808 z M 386.30314,200.925 c 0,-0.98581 -1.54553,1.03061 -3.4345,4.48093 -1.88896,3.45032 -3.43449,7.07988 -3.43449,8.06568 0,0.98581 1.54553,-1.03061 3.43449,-4.48093 1.88897,-3.45032 3.4345,-7.07987 3.4345,-8.06568 z m 7.16949,-16.13136 c 0,-0.9858 -1.54553,1.03062 -3.43449,4.48094 -1.88897,3.45031 -3.4345,7.07987 -3.4345,8.06567 0,0.98581 1.54553,-1.03061 3.4345,-4.48093 1.88896,-3.45032 3.43449,-7.07987 3.43449,-8.06568 z m 8.96186,-19.7161 c 0,-0.9858 -1.54553,1.03062 -3.43449,4.48093 -1.88896,3.45032 -3.43449,7.07988 -3.43449,8.06568 0,0.98581 1.54553,-1.03061 3.43449,-4.48093 1.88896,-3.45032 3.43449,-7.07987 3.43449,-8.06568 z m 7.16949,-16.13135 c 0,-0.98581 -1.54552,1.03061 -3.43449,4.48093 -1.88896,3.45032 -3.43449,7.07987 -3.43449,8.06568 0,0.9858 1.54553,-1.03062 3.43449,-4.48094 1.88897,-3.45031 3.43449,-7.07987 3.43449,-8.06567 z m 8.96187,-19.71611 c 0,-0.9858 -1.54553,1.03062 -3.43449,4.48094 -1.88897,3.45031 -3.4345,7.07987 -3.4345,8.06567 0,0.98581 1.54553,-1.03061 3.4345,-4.48093 1.88896,-3.45032 3.43449,-7.07987 3.43449,-8.06568 z m 7.16949,-16.13135 c 0,-0.98581 -1.54553,1.03061 -3.43449,4.48093 -1.88897,3.45032 -3.43449,7.07987 -3.43449,8.06568 0,0.9858 1.54552,-1.03062 3.43449,-4.48093 1.88896,-3.45032 3.43449,-7.07988 3.43449,-8.06568 z m 8.96186,-19.716103 c 0,-0.985805 -1.54552,1.030615 -3.43449,4.480932 -1.88896,3.450321 -3.43449,7.079871 -3.43449,8.065681 0,0.9858 1.54553,-1.03062 3.43449,-4.48093 1.88897,-3.450323 3.43449,-7.079878 3.43449,-8.065683 z M 257.24056,23.480085 c 0,-0.985805 -1.94353,1.837182 -4.31895,6.273305 -2.37542,4.436123 -4.31895,8.872246 -4.31895,9.858051 0,0.985805 1.94353,-1.837183 4.31895,-6.273305 2.37542,-4.436123 4.31895,-8.872246 4.31895,-9.858051 z m 15.71641,-36.125659 c -0.67348,-0.673475 -13.45836,26.536521 -14.86859,31.644727 -0.40822,1.478707 2.92222,-4.884419 7.40098,-14.1402793 4.47877,-9.2558601 7.83919,-17.1328617 7.46761,-17.5044477 z"
     id="path37"
     inkscape:connector-curvature="0" />
  <path
     style="fill:#008080;stroke-width:1.79237282"
     d="m 582.32812,342.89273 c 2.77668,-7.2359 116.55584,-256.887566 117.57852,-257.98813 0.66877,-0.719694 16.02154,13.513313 34.11728,31.62891 32.2093,32.24463 32.90135,33.09557 32.90135,40.45558 0,9.96131 -5.88041,15.96586 -17.74809,18.12276 -11.56246,2.10144 -18.5882,9.47397 -18.5882,19.50575 0,8.57335 1.74975,10.76751 37.55801,47.09743 29.67904,30.11142 34.15607,37.25383 33.97749,54.20573 -0.20078,19.05734 -8.99706,34.16718 -25.04258,43.01695 l -9.74927,5.37712 -92.97079,0.50993 c -77.88396,0.42718 -92.81872,0.11364 -92.03372,-1.93203 z"
     id="path39"
     inkscape:connector-curvature="0" />
</svg>
