<?xml version="1.0" encoding="UTF-8" standalone="no"?>
<svg
   xmlns:dc="http://purl.org/dc/elements/1.1/"
   xmlns:cc="http://creativecommons.org/ns#"
   xmlns:rdf="http://www.w3.org/1999/02/22-rdf-syntax-ns#"
   xmlns:svg="http://www.w3.org/2000/svg"
   xmlns="http://www.w3.org/2000/svg"
   xmlns:sodipodi="http://sodipodi.sourceforge.net/DTD/sodipodi-0.dtd"
   xmlns:inkscape="http://www.inkscape.org/namespaces/inkscape"
   width="139"
   height="20"
   version="1.1"
   id="svg21"
   sodipodi:docname="logo-white.svg"
   inkscape:version="0.92.5 (2060ec1f9f, 2020-04-08)">
  <metadata
     id="metadata25">
    <rdf:RDF>
      <cc:Work
         rdf:about="">
        <dc:format>image/svg+xml</dc:format>
        <dc:type
           rdf:resource="http://purl.org/dc/dcmitype/StillImage" />
        <dc:title></dc:title>
      </cc:Work>
    </rdf:RDF>
  </metadata>
  <sodipodi:namedview
     pagecolor="#ffffff"
     bordercolor="#666666"
     borderopacity="1"
     objecttolerance="10"
     gridtolerance="10"
     guidetolerance="10"
     inkscape:pageopacity="0"
     inkscape:pageshadow="2"
     inkscape:window-width="1366"
     inkscape:window-height="704"
     id="namedview23"
     showgrid="false"
     inkscape:zoom="2.6978417"
     inkscape:cx="69.5"
     inkscape:cy="10"
     inkscape:window-x="0"
     inkscape:window-y="27"
     inkscape:window-maximized="1"
     inkscape:current-layer="svg21" />
  <defs
     id="defs7">
    <linearGradient
       id="a"
       x1="72.195%"
       x2="17.503%"
       y1="0%"
       y2="100%">
      <stop
         offset="0%"
         stop-color="#33D35E"
         id="stop2" />
      <stop
         offset="100%"
         stop-color="#2AB6D9"
         id="stop4" />
    </linearGradient>
  </defs>
  <g
     fill="none"
     fill-rule="evenodd"
     id="g19">
    <path
       fill="#2D314D"
       fill-rule="nonzero"
       d="M37.754 15.847c2.852 0 5.152-1.622 5.952-4.216h-3.897c-.376.665-1.14 1.066-2.055 1.066-1.237 0-2.065-.674-2.32-1.978h8.44c.051-.352.081-.694.081-1.037 0-3.335-2.537-5.95-6.201-5.95-3.568 0-6.175 2.564-6.175 6.049 0 3.473 2.628 6.066 6.175 6.066zm2.344-7.297h-4.596c.317-1.129 1.11-1.749 2.252-1.749 1.181 0 2 .613 2.344 1.75zm10.946 7.296c1.32 0 2.5-.434 3.43-1.188l.336.804h3.027V4.093h-2.919l-.4.88c-.94-.775-2.135-1.222-3.474-1.222-3.476 0-5.961 2.505-5.961 6.026 0 3.533 2.485 6.07 5.961 6.07zm.524-3.467c-1.467 0-2.545-1.108-2.545-2.593 0-1.475 1.069-2.583 2.545-2.583 1.466 0 2.544 1.108 2.544 2.583 0 1.485-1.078 2.593-2.544 2.593zm13.123 3.467c3.02 0 5.025-1.554 5.025-3.93 0-2.883-2.387-3.256-4.183-3.575-1.08-.193-1.95-.344-1.95-.99 0-.527.422-.838 1.05-.838.71 0 1.197.337 1.197 1.063h3.667c-.044-2.303-1.92-3.843-4.816-3.843-2.912 0-4.854 1.47-4.854 3.75 0 2.757 2.337 3.289 4.1 3.574 1.092.181 1.952.368 1.952 1.024 0 .587-.543.88-1.116.88-.742 0-1.32-.383-1.32-1.214h-3.77c.036 2.463 1.919 4.1 5.018 4.1zm8.1 3.858c2.936 0 4.344-1.257 5.877-4.736l4.764-10.863h-4.206l-2.249 6.263-2.412-6.263H70.31l4.698 10.43c-.53 1.414-.983 1.804-2.48 1.804H71.45v3.365h1.341zm18.504-3.858c3.5 0 5.973-2.515 5.973-6.048S94.796 3.75 91.295 3.75a5.332 5.332 0 00-2.825.784V0H84.6v15.474h2.897l.37-.844c.923.771 2.102 1.216 3.428 1.216zm-.523-3.467c-1.467 0-2.545-1.108-2.545-2.58 0-1.486 1.078-2.594 2.545-2.594 1.466 0 2.544 1.108 2.544 2.593 0 1.473-1.087 2.58-2.544 2.58zm13.598 3.467c1.32 0 2.5-.434 3.43-1.188l.336.804h3.027V4.093h-2.918l-.401.88c-.939-.775-2.135-1.222-3.474-1.222-3.476 0-5.96 2.505-5.96 6.026 0 3.533 2.484 6.07 5.96 6.07zm.524-3.467c-1.467 0-2.545-1.108-2.545-2.593 0-1.475 1.07-2.583 2.545-2.583 1.467 0 2.545 1.108 2.545 2.583 0 1.485-1.078 2.593-2.545 2.593zm12.653 3.095V9.403c0-1.447.702-2.3 1.923-2.3.986 0 1.483.657 1.483 1.98v6.39h3.915V8.543c0-2.897-1.733-4.773-4.373-4.773-1.47 0-2.733.565-3.58 1.508l-.537-1.172h-2.747v11.369h3.916zm13.748 0v-4.808l2.848 4.808h4.616l-3.902-5.95 3.543-5.419h-4.397l-2.708 4.454V0h-3.916v15.474h3.916z"
       id="path9" />
    <g
       fill="url(#a)"
       id="g17">
      <path
         d="M10.802 0L0 19.704h5.986L16.789 0z"
         id="path11" />
      <path
         opacity=".5"
         d="M18.171 0L7.368 19.704h5.986L24.157 0z"
         id="path13" />
      <path
         opacity=".15"
         d="M25.539 0L14.737 19.704h5.986L31.525 0z"
         id="path15" />
    </g>
  </g>
  <path
     style="fill:#e6e6e6;stroke-width:0.37066665"
     d="M 35.584,15.242076 C 31.768533,13.849069 30.53345,9.0245432 33.211477,5.9744395 34.561858,4.4364401 36.409578,3.7714808 38.63563,4.0223892 c 2.740654,0.3089113 4.776586,2.3868914 4.998213,5.1014401 l 0.104824,1.2839037 -4.17,0.104807 c -4.384655,0.110201 -4.941196,0.379707 -3.492147,1.691078 0.839079,0.759356 2.282711,0.790244 3.235968,0.06924 0.395732,-0.299316 1.521242,-0.549516 2.501135,-0.556 l 1.781622,-0.01179 -0.669622,1.137602 c -1.37343,2.333279 -4.618159,3.393729 -7.341623,2.399406 z m 4.627657,-6.7803427 c -0.03594,-1.7601147 -3.597446,-2.4126682 -4.452101,-0.8157309 -0.56658,1.058664 -0.500903,1.0937309 2.048444,1.0937309 1.325133,0 2.406779,-0.1251 2.403657,-0.278 z"
     id="path27"
     inkscape:connector-curvature="0" />
  <path
     style="fill:#e6e6e6;stroke-width:0.37066665"
     d="m 48.3853,14.9484 c -2.027455,-1.039626 -2.978633,-2.736588 -2.978633,-5.3140682 0,-4.2250028 4.326869,-7.0282928 7.93995,-5.1441315 0.74227,0.3870816 1.202555,0.4446276 1.464133,0.1830497 0.209834,-0.2098341 0.931957,-0.3815167 1.604717,-0.3815167 h 1.2232 v 5.56 5.5599997 h -1.2232 c -0.67276,0 -1.393828,-0.170628 -1.602374,-0.379173 -0.258453,-0.258453 -0.809317,-0.199448 -1.730228,0.185333 -1.833649,0.766148 -2.784232,0.711614 -4.697565,-0.269493 z m 5.14913,-3.478654 c 0.852698,-1.084029 0.966493,-2.0376377 0.375033,-3.1427904 -0.919331,-1.7177859 -3.918209,-1.5513571 -4.745038,0.2633353 -0.589422,1.29364 -0.533166,1.7611691 0.346478,2.8794551 1.062433,1.350664 2.961094,1.350664 4.023527,0 z"
     id="path29"
     inkscape:connector-curvature="0" />
  <path
     style="fill:#e6e6e6;stroke-width:0.37066665"
     d="m 63.198667,15.5407 c -1.457532,-0.480183 -2.331811,-1.115598 -2.811623,-2.043452 -0.288408,-0.557718 -0.524377,-1.105717 -0.524377,-1.217774 0,-0.480487 3.273753,-0.169369 3.706666,0.352259 0.595863,0.717971 1.634189,0.710679 2.237038,-0.01571 0.652292,-0.785963 0.137355,-1.21127 -2.219185,-1.832914 C 61.400382,10.206242 60.40307,9.4664798 60.080731,8.1821773 59.31793,5.1429362 63.452908,2.9332259 67.072736,4.4456867 c 1.180401,0.4932028 2.056597,1.522667 2.056597,2.4163451 0,0.2210784 -0.734516,0.3950349 -1.668,0.3950349 -0.9174,0 -1.668,-0.1668 -1.668,-0.3706667 0,-0.2038667 -0.5004,-0.3706667 -1.112,-0.3706667 -0.857605,0 -1.112,0.1663282 -1.112,0.7270464 0,0.5451328 0.394163,0.8277035 1.575334,1.1293383 C 68.767071,9.2971697 69.5,9.9079127 69.5,12.001378 c 0,2.488467 -3.50884,4.459307 -6.301333,3.539322 z"
     id="path31"
     inkscape:connector-curvature="0" />
  <path
     style="fill:#e6e6e6;stroke-width:0.37066665"
     d="m 71.724,18.0064 c 0,-1.382347 0.07135,-1.482667 1.054551,-1.482667 1.074415,0 2.281449,-0.970074 2.281449,-1.833563 0,-0.262821 -0.688458,-2.001087 -1.529908,-3.862813 C 72.688643,8.9656306 71.693771,6.7335 71.319265,5.8670667 l -0.68092,-1.5753334 1.932828,0.0016 1.932827,0.0016 1.106211,2.9955491 c 0.608416,1.647552 1.198432,3.0525446 1.311147,3.1222066 0.112716,0.06966 0.692211,-1.2790556 1.287767,-2.9971505 l 1.08283,-3.1238089 h 1.935377 1.935377 L 80.759267,9.759063 c -3.804109,8.653562 -4.658127,9.73 -7.719526,9.73 -1.28792,0 -1.315741,-0.03135 -1.315741,-1.482667 z"
     id="path33"
     inkscape:connector-curvature="0" />
  <path
     style="fill:#e6e6e6;stroke-width:0.37066665"
     d="m 89.173214,15.202544 c -0.867119,-0.376258 -1.389893,-0.430398 -1.649467,-0.170824 -0.209007,0.209007 -0.930454,0.380013 -1.603214,0.380013 h -1.2232 V 7.8130667 0.2144 H 86.550667 88.404 V 2.4292257 4.6440513 L 89.354797,4.282559 c 3.788689,-1.4404571 7.574536,1.3022995 7.574536,5.4875717 0,2.5985873 -1.035158,4.3618743 -3.115281,5.3065633 -1.824468,0.828584 -2.950931,0.859131 -4.640838,0.12585 z m 3.651883,-3.732798 c 0.879644,-1.118286 0.9359,-1.5858151 0.346478,-2.8794551 -0.826829,-1.8146924 -3.825707,-1.981121 -4.745038,-0.2633353 -0.59146,1.1051527 -0.477665,2.0587614 0.375033,3.1427904 1.062433,1.350664 2.961094,1.350664 4.023527,0 z"
     id="path35"
     inkscape:connector-curvature="0" />
  <path
     style="fill:#e6e6e6;stroke-width:0.37066665"
     d="m 101.74235,14.9484 c -2.069301,-1.048867 -3.045222,-2.682226 -3.045222,-5.0966667 0,-3.1838826 1.970982,-5.4875641 4.985772,-5.8273749 1.13127,-0.1275112 2.03066,0.01155 2.86493,0.4429687 0.87426,0.452094 1.32906,0.5157845 1.61823,0.226616 0.22121,-0.2212154 0.95265,-0.4022098 1.62541,-0.4022098 h 1.2232 v 5.56 5.5599997 h -1.45178 c -0.79848,0 -1.50999,-0.174622 -1.58113,-0.38805 -0.0836,-0.25076 -0.61486,-0.18519 -1.50165,0.185333 -1.85475,0.774964 -2.79692,0.723137 -4.73776,-0.260616 z m 5.29004,-3.662246 c 1.07643,-1.4480912 0.5995,-3.1902516 -1.06359,-3.8851334 -1.10228,-0.4605653 -1.40168,-0.4580507 -2.32521,0.019531 -0.94733,0.4898804 -1.50525,1.466043 -1.51986,2.6591944 -0.003,0.227341 0.34767,0.86177 0.77878,1.409841 1.04614,1.329955 3.06392,1.230561 4.12988,-0.203431 z"
     id="path37"
     inkscape:connector-curvature="0" />
  <path
     style="fill:#e6e6e6;stroke-width:0.37066665"
     d="m 113.98,9.8517333 v -5.56 h 1.09358 c 0.61257,0 1.23815,0.2583214 1.42225,0.5872946 0.29333,0.5241504 0.46468,0.5043728 1.59375,-0.1839478 1.51018,-0.920661 2.9374,-0.9825013 4.46336,-0.1933946 1.67126,0.8642425 2.17639,2.4903395 2.17639,7.0061425 v 3.903905 h -1.85333 -1.85333 v -3.817866 c 0,-3.937976 -0.25448,-4.707467 -1.5568,-4.707467 -0.36696,0 -1.0008,0.3336 -1.40854,0.7413333 C 117.42005,8.2650198 117.316,8.8632888 117.316,11.8904 v 3.521333 h -1.668 -1.668 z"
     id="path39"
     inkscape:connector-curvature="0" />
  <path
     style="fill:#e6e6e6;stroke-width:0.37066665"
     d="M 127.69467,7.8130667 V 0.2144 h 1.65623 1.65624 l 0.10443,4.3553333 0.10443,4.3553334 1.44269,-2.3166667 1.44268,-2.3166667 h 1.98894 1.98893 l -1.72339,2.5917392 -1.72339,2.5917391 1.9015,2.8755944 1.90149,2.875594 -1.93864,0.115144 c -2.14956,0.127672 -2.17787,0.106435 -4.16881,-3.127538 l -1.112,-1.806273 -0.1096,2.502 -0.1096,2.502 h -1.65107 -1.65106 z"
     id="path41"
     inkscape:connector-curvature="0" />
</svg>
